# File created by Blade
# Date/Time:  Wed Sep 24 19:53:44 2014
# Frame Rate: 120.000 fps
#------------------------------------------------------
:FULLY-SPECIFIED
:DEGREES
2782
root -6.205606 32.850828 -4.790437 8.893304 10.668550 -0.451438
Spine -12.791425 9.340110 1.397007
Head -17.207900 -6.036656 11.848358
LeftShoulder -13.951477 17.123153 21.730070
LeftArm 67.753330 -81.463040 -98.408538
LeftForeArm -42.284653 -0.000000 116.448361
LeftHand -18.344165 -0.000000 12.799358
LeftHandThumb1 -26.253704 0.000000 33.147579
RightShoulder -20.377204 12.078690 -16.827346
RightArm -11.757373 -12.697605 76.679462
RightForeArm -21.540870 -0.000000 20.259516
RightHand -7.942953 -0.000000 9.041880
RightHandThumb1 -24.326973 -0.000000 -32.862282
LeftUpLeg -5.224491 2.044819 4.968365
LeftLeg -1.744085 -0.000000 0.000000
LeftFoot -7.722042 2.295876 -18.414581
LeftToeBase 11.830216 -0.000000 -0.000000
RightUpLeg -4.345034 -12.291418 -2.392716
RightLeg 2.494225 -0.000000 -0.000000
RightFoot -7.385036 -8.004069 -12.965029
RightToeBase 0.007184 -0.000000 -0.000000
2783
root -6.211594 32.850817 -4.789074 8.869413 10.682154 -0.482956
Spine -12.775997 9.327296 1.417570
Head -17.187882 -6.028180 11.863942
LeftShoulder -13.932652 17.108698 21.757785
LeftArm 67.644998 -81.482479 -98.310434
LeftForeArm -42.291179 0.000000 116.448991
LeftHand -18.314477 -0.000000 12.783680
LeftHandThumb1 -26.253704 0.000000 33.147579
RightShoulder -20.370086 12.075495 -16.813179
RightArm -11.758268 -12.710562 76.674676
RightForeArm -21.517936 -0.000000 20.246474
RightHand -7.933908 -0.000000 9.038023
RightHandThumb1 -24.326973 -0.000000 -32.862282
LeftUpLeg -5.207968 2.050869 5.014718
LeftLeg -1.744054 -0.000000 0.000000
LeftFoot -7.720737 2.262649 -18.420859
LeftToeBase 11.831298 -0.000000 -0.000000
RightUpLeg -4.335800 -12.260035 -2.356040
RightLeg 2.521861 -0.000000 -0.000000
RightFoot -7.387043 -8.039296 -12.978146
RightToeBase 0.017185 -0.000000 -0.000000
2784
root -6.212676 32.851106 -4.789621 8.857665 10.692537 -0.493079
Spine -12.771160 9.317074 1.425613
Head -17.160343 -6.020116 11.872424
LeftShoulder -13.890917 17.004333 21.826461
LeftArm 66.850059 -81.534323 -97.576616
LeftForeArm -42.304712 0.000000 116.465504
LeftHand -18.331121 0.000000 12.730065
LeftHandThumb1 -26.253704 0.000000 33.147579
RightShoulder -20.359027 12.068213 -16.800787
RightArm -11.759326 -12.713471 76.660952
RightForeArm -21.518106 -0.000000 20.248925
RightHand -7.906169 -0.000000 9.061938
RightHandThumb1 -24.326973 -0.000000 -32.862282
LeftUpLeg -5.202496 2.045154 5.027746
LeftLeg -1.740903 -0.000000 0.000000
LeftFoot -7.731104 2.246244 -18.512595
LeftToeBase 11.869093 -0.000000 -0.000000
RightUpLeg -4.329462 -12.253029 -2.344954
RightLeg 2.528109 -0.000000 -0.000000
RightFoot -7.376296 -8.053885 -12.968529
RightToeBase 0.008681 -0.000000 -0.000000
2785
root -6.212636 32.850970 -4.789994 8.845284 10.699638 -0.493260
Spine -12.762143 9.310224 1.428020
Head -17.136282 -6.009823 11.856831
LeftShoulder -13.873894 16.996712 21.836745
LeftArm 66.839831 -81.548209 -97.568667
LeftForeArm -42.274796 -0.000000 116.468117
LeftHand -18.300453 -0.000000 12.760496
LeftHandThumb1 -26.253704 0.000000 33.147579
RightShoulder -20.349918 12.063949 -16.801653
RightArm -11.764253 -12.692374 76.657003
RightForeArm -21.526649 -0.000000 20.249509
RightHand -7.931011 0.000000 9.054311
RightHandThumb1 -24.326973 -0.000000 -32.862282
LeftUpLeg -5.194859 2.045296 5.028342
LeftLeg -1.733805 -0.000000 0.000000
LeftFoot -7.725357 2.233369 -18.460387
LeftToeBase 11.844553 -0.000000 -0.000000
RightUpLeg -4.320573 -12.241935 -2.347885
RightLeg 2.538870 -0.000000 -0.000000
RightFoot -7.382984 -8.078578 -12.974166
RightToeBase 0.005923 -0.000000 -0.000000
2786
root -6.212389 32.850922 -4.789274 8.830865 10.718548 -0.494429
Spine -12.755875 9.292843 1.431292
Head -17.103494 -6.005864 11.855387
LeftShoulder -13.872242 17.004633 21.839891
LeftArm 66.925529 -81.534014 -97.644129
LeftForeArm -42.252844 -0.000000 116.478012
LeftHand -18.322977 -0.000000 12.807575
LeftHandThumb1 -26.253704 0.000000 33.147579
RightShoulder -20.347273 12.065617 -16.805383
RightArm -11.782345 -12.715726 76.657094
RightForeArm -21.476990 -0.000000 20.253244
RightHand -7.918708 0.000000 9.025016
RightHandThumb1 -24.326973 -0.000000 -32.862282
LeftUpLeg -5.179745 2.026449 5.031310
LeftLeg -1.740230 -0.000000 0.000000
LeftFoot -7.717178 2.231979 -18.454530
LeftToeBase 11.767575 -0.000000 -0.000000
RightUpLeg -4.302912 -12.268584 -2.347108
RightLeg 2.540675 -0.000000 -0.000000
RightFoot -7.390386 -8.068713 -12.994985
RightToeBase 0.050846 -0.000000 -0.000000
2787
root -6.212836 32.851044 -4.789599 8.826340 10.730853 -0.495641
Spine -12.762340 9.286582 1.427001
Head -17.074985 -6.005661 11.858837
LeftShoulder -13.860968 17.008398 21.853779
LeftArm 67.010615 -81.528740 -97.729394
LeftForeArm -42.221699 0.000000 116.482682
LeftHand -18.286789 -0.000000 12.749671
LeftHandThumb1 -26.253704 0.000000 33.147579
RightShoulder -20.346679 12.053612 -16.798682
RightArm -11.786872 -12.703163 76.648587
RightForeArm -21.482259 -0.000000 20.261555
RightHand -7.916532 0.000000 9.073595
RightHandThumb1 -24.326973 -0.000000 -32.862282
LeftUpLeg -5.176978 1.996778 5.036944
LeftLeg -1.741889 -0.000000 0.000000
LeftFoot -7.721121 2.263906 -18.427396
LeftToeBase 11.799250 -0.000000 -0.000000
RightUpLeg -4.304111 -12.281681 -2.344948
RightLeg 2.554901 -0.000000 -0.000000
RightFoot -7.393359 -8.057069 -12.992925
RightToeBase 0.047185 -0.000000 -0.000000
2788
root -6.212762 32.851033 -4.790312 8.820209 10.735027 -0.495822
Spine -12.764565 9.287360 1.427107
Head -17.045848 -6.013734 11.840677
LeftShoulder -13.848876 17.020895 21.852930
LeftArm 67.198032 -81.527875 -97.904882
LeftForeArm -42.221071 -0.000000 116.491175
LeftHand -18.320737 -0.000000 12.812971
LeftHandThumb1 -26.253704 0.000000 33.147579
RightShoulder -20.340485 12.031216 -16.800735
RightArm -11.779774 -12.689113 76.649248
RightForeArm -21.478794 -0.000000 20.264903
RightHand -7.900204 -0.000000 9.104778
RightHandThumb1 -24.326973 -0.000000 -32.862282
LeftUpLeg -5.178168 2.004122 5.036117
LeftLeg -1.731472 -0.000000 0.000000
LeftFoot -7.728639 2.237786 -18.446136
LeftToeBase 11.815280 -0.000000 -0.000000
RightUpLeg -4.303116 -12.274942 -2.346059
RightLeg 2.565524 -0.000000 -0.000000
RightFoot -7.396442 -8.070394 -12.950109
RightToeBase 0.010211 -0.000000 -0.000000
2789
root -6.213842 32.850814 -4.791045 8.809988 10.733031 -0.498356
Spine -12.756470 9.285131 1.420278
Head -17.028422 -5.988789 11.851383
LeftShoulder -13.861455 17.020649 21.861521
LeftArm 67.321522 -81.505681 -98.016541
LeftForeArm -42.213175 -0.000000 116.489763
LeftHand -18.326523 -0.000000 12.817357
LeftHandThumb1 -26.253704 0.000000 33.147579
RightShoulder -20.336214 12.031235 -16.789644
RightArm -11.777112 -12.698532 76.644196
RightForeArm -21.469535 -0.000000 20.257704
RightHand -7.871005 0.000000 9.096879
RightHandThumb1 -24.326973 -0.000000 -32.862282
LeftUpLeg -5.168180 1.990420 5.041782
LeftLeg -1.734702 -0.000000 0.000000
LeftFoot -7.735748 2.260037 -18.458492
LeftToeBase 11.836507 -0.000000 -0.000000
RightUpLeg -4.304667 -12.270699 -2.342895
RightLeg 2.584142 -0.000000 -0.000000
RightFoot -7.408663 -8.083958 -12.963358
RightToeBase 0.029640 -0.000000 -0.000000
2790
root -6.211015 32.850549 -4.791635 8.803003 10.730991 -0.479796
Spine -12.751903 9.278251 1.408118
Head -16.997559 -5.983120 11.819139
LeftShoulder -13.902631 17.115930 21.810149
LeftArm 68.126162 -81.439285 -98.771089
LeftForeArm -42.183717 0.000000 116.482128
LeftHand -18.302545 -0.000000 12.759604
LeftHandThumb1 -26.253704 0.000000 33.147579
RightShoulder -20.334676 12.018859 -16.795952
RightArm -11.765922 -12.711536 76.650928
RightForeArm -21.443157 -0.000000 20.256959
RightHand -7.888809 -0.000000 9.072867
RightHandThumb1 -24.326973 -0.000000 -32.862282
LeftUpLeg -5.156633 1.975653 5.018238
LeftLeg -1.738151 -0.000000 0.000000
LeftFoot -7.737642 2.288949 -18.433018
LeftToeBase 11.865290 -0.000000 -0.000000
RightUpLeg -4.297677 -12.296512 -2.366160
RightLeg 2.588833 -0.000000 -0.000000
RightFoot -7.412009 -8.071749 -12.997216
RightToeBase 0.023821 -0.000000 -0.000000
2791
root -6.210758 32.850534 -4.791968 8.795086 10.741974 -0.475838
Spine -12.747666 9.280913 1.398457
Head -16.982268 -5.992656 11.812050
LeftShoulder -13.893532 17.121612 21.813475
LeftArm 68.249265 -81.427630 -98.877713
LeftForeArm -42.198270 0.000000 116.484363
LeftHand -18.317399 -0.000000 12.857348
LeftHandThumb1 -26.253704 0.000000 33.147579
RightShoulder -20.342999 12.024850 -16.800237
RightArm -11.783218 -12.703837 76.649994
RightForeArm -21.453125 0.000000 20.260338
RightHand -7.899561 -0.000000 9.086814
RightHandThumb1 -24.326973 -0.000000 -32.862282
LeftUpLeg -5.151003 1.959490 5.015344
LeftLeg -1.736200 -0.000000 0.000000
LeftFoot -7.733111 2.289990 -18.435062
LeftToeBase 11.797051 -0.000000 -0.000000
RightUpLeg -4.291825 -12.295241 -2.371794
RightLeg 2.599040 -0.000000 -0.000000
RightFoot -7.417192 -8.080935 -12.984684
RightToeBase 0.008519 -0.000000 -0.000000
2792
root -6.211275 32.850684 -4.792145 8.790901 10.747253 -0.477013
Spine -12.752364 9.274667 1.393165
Head -16.954508 -5.993142 11.813993
LeftShoulder -13.892730 17.135417 21.820733
LeftArm 68.370736 -81.419312 -98.998486
LeftForeArm -42.208477 0.000000 116.488327
LeftHand -18.332420 0.000000 12.843857
LeftHandThumb1 -26.253704 0.000000 33.147579
RightShoulder -20.340805 12.014310 -16.790353
RightArm -11.780946 -12.697053 76.645025
RightForeArm -21.458749 0.000000 20.265804
RightHand -7.891722 -0.000000 9.073732
RightHandThumb1 -24.326973 -0.000000 -32.862282
LeftUpLeg -5.149345 1.952968 5.018574
LeftLeg -1.735258 -0.000000 0.000000
LeftFoot -7.730874 2.291785 -18.419420
LeftToeBase 11.797240 -0.000000 -0.000000
RightUpLeg -4.289643 -12.297222 -2.370084
RightLeg 2.603161 -0.000000 -0.000000
RightFoot -7.419483 -8.084556 -12.990006
RightToeBase -0.005514 -0.000000 0.000000
